{
	"asset":{
		"generator":"Khronos glTF Blender I/O v4.1.63",
		"version":"2.0"
	},
	"scene":0,
	"scenes":[
		{
			"extras":{
				"batch_export_preferences":{
					"_directory":"//gltf/",
					"reset_root_transform":0
				},
				"gltf_batch_export_preferences":{
					"export_format":1,
					"export_image_format":0
				},
				"sourceFilename":"/mnt/ultralaser_home/Projects/day_zero/day_zero_external_assets/models/buildings/office_building_2/ground_floor/ground_floor.blend"
			},
			"name":"Scene",
			"nodes":[
				0
			]
		}
	],
	"nodes":[
		{
			"mesh":0,
			"name":"left_edge",
			"translation":[
				2.5,
				2.5,
				-2.5
			]
		}
	],
	"materials":[
		{
			"name":"Concrete and Windows",
			"pbrMetallicRoughness":{
				"baseColorTexture":{
					"index":0
				},
				"metallicFactor":0,
				"metallicRoughnessTexture":{
					"index":1
				}
			}
		},
		{
			"name":"Ridged Concrete",
			"pbrMetallicRoughness":{
				"baseColorTexture":{
					"index":2
				},
				"metallicFactor":0
			}
		},
		{
			"name":"Plain Concrete",
			"pbrMetallicRoughness":{
				"baseColorTexture":{
					"index":3
				},
				"metallicFactor":0
			}
		}
	],
	"meshes":[
		{
			"name":"left_edge",
			"primitives":[
				{
					"attributes":{
						"POSITION":0,
						"NORMAL":1,
						"TEXCOORD_0":2
					},
					"indices":3,
					"material":0
				},
				{
					"attributes":{
						"POSITION":4,
						"NORMAL":5,
						"TEXCOORD_0":6
					},
					"indices":7,
					"material":1
				},
				{
					"attributes":{
						"POSITION":8,
						"NORMAL":9,
						"TEXCOORD_0":10
					},
					"indices":11,
					"material":2
				}
			]
		}
	],
	"textures":[
		{
			"sampler":0,
			"source":0
		},
		{
			"sampler":0,
			"source":1
		},
		{
			"sampler":0,
			"source":2
		},
		{
			"sampler":0,
			"source":3
		}
	],
	"images":[
		{
			"mimeType":"image/jpeg",
			"name":"ground_floor_windows",
			"uri":"ground_floor_windows.jpg"
		},
		{
			"mimeType":"image/png",
			"name":"ground_floor_windows_matte",
			"uri":"ground_floor_windows_matte.png"
		},
		{
			"mimeType":"image/jpeg",
			"name":"ground_floor_ridged_concrete",
			"uri":"ground_floor_ridged_concrete.jpg"
		},
		{
			"mimeType":"image/jpeg",
			"name":"ground_floor_plain_concrete",
			"uri":"ground_floor_plain_concrete.jpg"
		}
	],
	"accessors":[
		{
			"bufferView":0,
			"componentType":5126,
			"count":24,
			"max":[
				2.5,
				1.0172761678695679,
				2.5
			],
			"min":[
				-2.5,
				-2.5,
				0.5
			],
			"type":"VEC3"
		},
		{
			"bufferView":1,
			"componentType":5126,
			"count":24,
			"type":"VEC3"
		},
		{
			"bufferView":2,
			"componentType":5126,
			"count":24,
			"type":"VEC2"
		},
		{
			"bufferView":3,
			"componentType":5123,
			"count":36,
			"type":"SCALAR"
		},
		{
			"bufferView":4,
			"componentType":5126,
			"count":8,
			"max":[
				2.5,
				6.5,
				1.5
			],
			"min":[
				-1.5,
				2.51727557182312,
				0.5
			],
			"type":"VEC3"
		},
		{
			"bufferView":5,
			"componentType":5126,
			"count":8,
			"type":"VEC3"
		},
		{
			"bufferView":6,
			"componentType":5126,
			"count":8,
			"type":"VEC2"
		},
		{
			"bufferView":7,
			"componentType":5123,
			"count":12,
			"type":"SCALAR"
		},
		{
			"bufferView":8,
			"componentType":5126,
			"count":36,
			"max":[
				2.5,
				6.500000476837158,
				2.5
			],
			"min":[
				-2.5,
				-2.5,
				-2.5
			],
			"type":"VEC3"
		},
		{
			"bufferView":9,
			"componentType":5126,
			"count":36,
			"type":"VEC3"
		},
		{
			"bufferView":10,
			"componentType":5126,
			"count":36,
			"type":"VEC2"
		},
		{
			"bufferView":11,
			"componentType":5123,
			"count":78,
			"type":"SCALAR"
		}
	],
	"bufferViews":[
		{
			"buffer":0,
			"byteLength":288,
			"byteOffset":0,
			"target":34962
		},
		{
			"buffer":0,
			"byteLength":288,
			"byteOffset":288,
			"target":34962
		},
		{
			"buffer":0,
			"byteLength":192,
			"byteOffset":576,
			"target":34962
		},
		{
			"buffer":0,
			"byteLength":72,
			"byteOffset":768,
			"target":34963
		},
		{
			"buffer":0,
			"byteLength":96,
			"byteOffset":840,
			"target":34962
		},
		{
			"buffer":0,
			"byteLength":96,
			"byteOffset":936,
			"target":34962
		},
		{
			"buffer":0,
			"byteLength":64,
			"byteOffset":1032,
			"target":34962
		},
		{
			"buffer":0,
			"byteLength":24,
			"byteOffset":1096,
			"target":34963
		},
		{
			"buffer":0,
			"byteLength":432,
			"byteOffset":1120,
			"target":34962
		},
		{
			"buffer":0,
			"byteLength":432,
			"byteOffset":1552,
			"target":34962
		},
		{
			"buffer":0,
			"byteLength":288,
			"byteOffset":1984,
			"target":34962
		},
		{
			"buffer":0,
			"byteLength":156,
			"byteOffset":2272,
			"target":34963
		}
	],
	"samplers":[
		{
			"magFilter":9729,
			"minFilter":9987
		}
	],
	"buffers":[
		{
			"byteLength":2428,
			"uri":"left_edge.bin"
		}
	]
}
