{
	"asset":{
		"generator":"Khronos glTF Blender I/O v4.1.63",
		"version":"2.0"
	},
	"scene":0,
	"scenes":[
		{
			"extras":{
				"batch_export_preferences":{
					"_directory":"//glft/",
					"reset_root_transform":0
				},
				"gltf_batch_export_preferences":{
					"export_format":1,
					"export_image_format":0
				},
				"sourceFilename":"/mnt/ultralaser_home/Projects/day_zero/day_zero_external_assets/models/buildings/office_building_2/roof_floor/roof_floor.blend"
			},
			"name":"Scene",
			"nodes":[
				0
			]
		}
	],
	"nodes":[
		{
			"mesh":0,
			"name":"right_edge",
			"translation":[
				2.5,
				2.5,
				-2.5
			]
		}
	],
	"materials":[
		{
			"name":"Ridged Concrete",
			"pbrMetallicRoughness":{
				"baseColorTexture":{
					"index":0
				},
				"metallicFactor":0
			}
		},
		{
			"name":"Plain Concrete",
			"pbrMetallicRoughness":{
				"baseColorTexture":{
					"index":1
				},
				"metallicFactor":0
			}
		}
	],
	"meshes":[
		{
			"name":"right_edge",
			"primitives":[
				{
					"attributes":{
						"POSITION":0,
						"NORMAL":1,
						"TEXCOORD_0":2
					},
					"indices":3,
					"material":0
				},
				{
					"attributes":{
						"POSITION":4,
						"NORMAL":5,
						"TEXCOORD_0":6
					},
					"indices":7,
					"material":1
				}
			]
		}
	],
	"textures":[
		{
			"sampler":0,
			"source":0
		},
		{
			"sampler":0,
			"source":1
		}
	],
	"images":[
		{
			"mimeType":"image/jpeg",
			"name":"roof_floor_ridged_concrete",
			"uri":"roof_floor_ridged_concrete.jpg"
		},
		{
			"mimeType":"image/jpeg",
			"name":"roof_floor_plain_concrete",
			"uri":"roof_floor_plain_concrete.jpg"
		}
	],
	"accessors":[
		{
			"bufferView":0,
			"componentType":5126,
			"count":8,
			"max":[
				1.5,
				2.5,
				1.5
			],
			"min":[
				-2.5,
				-2.5,
				0.5
			],
			"type":"VEC3"
		},
		{
			"bufferView":1,
			"componentType":5126,
			"count":8,
			"type":"VEC3"
		},
		{
			"bufferView":2,
			"componentType":5126,
			"count":8,
			"type":"VEC2"
		},
		{
			"bufferView":3,
			"componentType":5123,
			"count":12,
			"type":"SCALAR"
		},
		{
			"bufferView":4,
			"componentType":5126,
			"count":14,
			"max":[
				2.5,
				2.5,
				1.5
			],
			"min":[
				-2.5,
				-2.5,
				-2.5
			],
			"type":"VEC3"
		},
		{
			"bufferView":5,
			"componentType":5126,
			"count":14,
			"type":"VEC3"
		},
		{
			"bufferView":6,
			"componentType":5126,
			"count":14,
			"type":"VEC2"
		},
		{
			"bufferView":7,
			"componentType":5123,
			"count":24,
			"type":"SCALAR"
		}
	],
	"bufferViews":[
		{
			"buffer":0,
			"byteLength":96,
			"byteOffset":0,
			"target":34962
		},
		{
			"buffer":0,
			"byteLength":96,
			"byteOffset":96,
			"target":34962
		},
		{
			"buffer":0,
			"byteLength":64,
			"byteOffset":192,
			"target":34962
		},
		{
			"buffer":0,
			"byteLength":24,
			"byteOffset":256,
			"target":34963
		},
		{
			"buffer":0,
			"byteLength":168,
			"byteOffset":280,
			"target":34962
		},
		{
			"buffer":0,
			"byteLength":168,
			"byteOffset":448,
			"target":34962
		},
		{
			"buffer":0,
			"byteLength":112,
			"byteOffset":616,
			"target":34962
		},
		{
			"buffer":0,
			"byteLength":48,
			"byteOffset":728,
			"target":34963
		}
	],
	"samplers":[
		{
			"magFilter":9729,
			"minFilter":9987
		}
	],
	"buffers":[
		{
			"byteLength":776,
			"uri":"right_edge.bin"
		}
	]
}
