{
	"asset":{
		"generator":"Khronos glTF Blender I/O v4.1.63",
		"version":"2.0"
	},
	"scene":0,
	"scenes":[
		{
			"extras":{
				"batch_export_preferences":{
					"_directory":"//gltf/",
					"reset_root_transform":0
				},
				"gltf_batch_export_preferences":{
					"export_format":1,
					"export_image_format":0
				},
				"sourceFilename":"/mnt/ultralaser_home/Projects/day_zero/day_zero_external_assets/models/buildings/office_building_1/ground_floor/ground_floor.blend"
			},
			"name":"Scene",
			"nodes":[
				0
			]
		}
	],
	"nodes":[
		{
			"mesh":0,
			"name":"right_edge",
			"translation":[
				2.5,
				2.5,
				-2.5
			]
		}
	],
	"materials":[
		{
			"name":"Black Stone.001",
			"pbrMetallicRoughness":{
				"baseColorTexture":{
					"index":0
				},
				"metallicFactor":0.0338461697101593,
				"roughnessFactor":0.19099798798561096
			}
		},
		{
			"name":"Glass.001",
			"pbrMetallicRoughness":{
				"baseColorTexture":{
					"index":1
				},
				"metallicFactor":0,
				"metallicRoughnessTexture":{
					"index":2
				}
			}
		},
		{
			"name":"Black Stone and Concrete.001",
			"pbrMetallicRoughness":{
				"baseColorTexture":{
					"index":3
				},
				"metallicFactor":0,
				"metallicRoughnessTexture":{
					"index":4
				}
			}
		}
	],
	"meshes":[
		{
			"name":"right_edge",
			"primitives":[
				{
					"attributes":{
						"POSITION":0,
						"NORMAL":1,
						"TEXCOORD_0":2
					},
					"indices":3,
					"material":0
				},
				{
					"attributes":{
						"POSITION":4,
						"NORMAL":5,
						"TEXCOORD_0":6
					},
					"indices":7,
					"material":1
				},
				{
					"attributes":{
						"POSITION":8,
						"NORMAL":9,
						"TEXCOORD_0":10
					},
					"indices":11,
					"material":2
				}
			]
		}
	],
	"textures":[
		{
			"sampler":0,
			"source":0
		},
		{
			"sampler":0,
			"source":1
		},
		{
			"sampler":0,
			"source":2
		},
		{
			"sampler":0,
			"source":3
		},
		{
			"sampler":0,
			"source":4
		}
	],
	"images":[
		{
			"mimeType":"image/jpeg",
			"name":"black_fancy_tiled_5x5_1024",
			"uri":"black_fancy_tiled_5x5_1024.jpg"
		},
		{
			"mimeType":"image/jpeg",
			"name":"black_framed_window_3x3_1024",
			"uri":"black_framed_window_3x3_1024.jpg"
		},
		{
			"mimeType":"image/png",
			"name":"black_framed_window_3x3_1024_matte",
			"uri":"black_framed_window_3x3_1024_matte.png"
		},
		{
			"mimeType":"image/jpeg",
			"name":"flat_grey_concrete_with_black_fancy_stone_1x5_1024",
			"uri":"flat_grey_concrete_with_black_fancy_stone_1x5_1024.jpg"
		},
		{
			"mimeType":"image/png",
			"name":"Image",
			"uri":"Image.png"
		}
	],
	"accessors":[
		{
			"bufferView":0,
			"componentType":5126,
			"count":20,
			"max":[
				2.5,
				2.5,
				2.5
			],
			"min":[
				-2.5,
				-2.5,
				2
			],
			"type":"VEC3"
		},
		{
			"bufferView":1,
			"componentType":5126,
			"count":20,
			"type":"VEC3"
		},
		{
			"bufferView":2,
			"componentType":5126,
			"count":20,
			"type":"VEC2"
		},
		{
			"bufferView":3,
			"componentType":5123,
			"count":36,
			"type":"SCALAR"
		},
		{
			"bufferView":4,
			"componentType":5126,
			"count":4,
			"max":[
				2.200000047683716,
				1.9000003337860107,
				2
			],
			"min":[
				-2.200000047683716,
				-2.5,
				2
			],
			"type":"VEC3"
		},
		{
			"bufferView":5,
			"componentType":5126,
			"count":4,
			"type":"VEC3"
		},
		{
			"bufferView":6,
			"componentType":5126,
			"count":4,
			"type":"VEC2"
		},
		{
			"bufferView":7,
			"componentType":5123,
			"count":6,
			"type":"SCALAR"
		},
		{
			"bufferView":8,
			"componentType":5126,
			"count":4,
			"max":[
				2.5,
				2.5,
				2.5
			],
			"min":[
				2.5,
				-2.5,
				-2.5
			],
			"type":"VEC3"
		},
		{
			"bufferView":9,
			"componentType":5126,
			"count":4,
			"type":"VEC3"
		},
		{
			"bufferView":10,
			"componentType":5126,
			"count":4,
			"type":"VEC2"
		},
		{
			"bufferView":11,
			"componentType":5123,
			"count":6,
			"type":"SCALAR"
		}
	],
	"bufferViews":[
		{
			"buffer":0,
			"byteLength":240,
			"byteOffset":0,
			"target":34962
		},
		{
			"buffer":0,
			"byteLength":240,
			"byteOffset":240,
			"target":34962
		},
		{
			"buffer":0,
			"byteLength":160,
			"byteOffset":480,
			"target":34962
		},
		{
			"buffer":0,
			"byteLength":72,
			"byteOffset":640,
			"target":34963
		},
		{
			"buffer":0,
			"byteLength":48,
			"byteOffset":712,
			"target":34962
		},
		{
			"buffer":0,
			"byteLength":48,
			"byteOffset":760,
			"target":34962
		},
		{
			"buffer":0,
			"byteLength":32,
			"byteOffset":808,
			"target":34962
		},
		{
			"buffer":0,
			"byteLength":12,
			"byteOffset":840,
			"target":34963
		},
		{
			"buffer":0,
			"byteLength":48,
			"byteOffset":852,
			"target":34962
		},
		{
			"buffer":0,
			"byteLength":48,
			"byteOffset":900,
			"target":34962
		},
		{
			"buffer":0,
			"byteLength":32,
			"byteOffset":948,
			"target":34962
		},
		{
			"buffer":0,
			"byteLength":12,
			"byteOffset":980,
			"target":34963
		}
	],
	"samplers":[
		{
			"magFilter":9729,
			"minFilter":9987
		}
	],
	"buffers":[
		{
			"byteLength":992,
			"uri":"right_edge.bin"
		}
	]
}
