{
	"asset":{
		"generator":"Khronos glTF Blender I/O v4.1.63",
		"version":"2.0"
	},
	"scene":0,
	"scenes":[
		{
			"extras":{
				"batch_export_preferences":{
					"_directory":"//gltf/",
					"reset_root_transform":0
				},
				"gltf_batch_export_preferences":{
					"export_format":1,
					"export_image_format":0
				},
				"sourceFilename":"/mnt/ultralaser_home/Projects/day_zero/day_zero_external_assets/models/buildings/bauhaus_building/ground_floor/ground_floor.blend"
			},
			"name":"Scene",
			"nodes":[
				0
			]
		}
	],
	"nodes":[
		{
			"mesh":0,
			"name":"door",
			"translation":[
				2.5,
				2.5,
				-2.5
			]
		}
	],
	"materials":[
		{
			"name":"Black Matte",
			"pbrMetallicRoughness":{
				"baseColorFactor":[
					0.014443744905292988,
					0.014443851076066494,
					0.014443845488131046,
					1
				],
				"metallicFactor":0
			}
		},
		{
			"name":"Stucco",
			"pbrMetallicRoughness":{
				"baseColorTexture":{
					"index":0
				},
				"metallicFactor":0
			}
		},
		{
			"name":"Door",
			"pbrMetallicRoughness":{
				"baseColorTexture":{
					"index":1
				},
				"metallicFactor":0,
				"metallicRoughnessTexture":{
					"index":2
				}
			}
		}
	],
	"meshes":[
		{
			"name":"door",
			"primitives":[
				{
					"attributes":{
						"POSITION":0,
						"NORMAL":1,
						"TEXCOORD_0":2
					},
					"indices":3,
					"material":0
				},
				{
					"attributes":{
						"POSITION":4,
						"NORMAL":5,
						"TEXCOORD_0":6
					},
					"indices":7,
					"material":1
				},
				{
					"attributes":{
						"POSITION":8,
						"NORMAL":9,
						"TEXCOORD_0":10
					},
					"indices":11,
					"material":2
				}
			]
		}
	],
	"textures":[
		{
			"sampler":0,
			"source":0
		},
		{
			"sampler":0,
			"source":1
		},
		{
			"sampler":0,
			"source":2
		}
	],
	"images":[
		{
			"mimeType":"image/jpeg",
			"name":"ground_floor_stucco",
			"uri":"ground_floor_stucco.jpg"
		},
		{
			"mimeType":"image/jpeg",
			"name":"ground_floor_door",
			"uri":"ground_floor_door.jpg"
		},
		{
			"mimeType":"image/png",
			"name":"ground_floor_door_matte",
			"uri":"ground_floor_door_matte.png"
		}
	],
	"accessors":[
		{
			"bufferView":0,
			"componentType":5126,
			"count":4,
			"max":[
				2.5,
				1.4999998807907104,
				2.500000238418579
			],
			"min":[
				-2.500000238418579,
				1.4000002145767212,
				2.5
			],
			"type":"VEC3"
		},
		{
			"bufferView":1,
			"componentType":5126,
			"count":4,
			"type":"VEC3"
		},
		{
			"bufferView":2,
			"componentType":5126,
			"count":4,
			"type":"VEC2"
		},
		{
			"bufferView":3,
			"componentType":5123,
			"count":6,
			"type":"SCALAR"
		},
		{
			"bufferView":4,
			"componentType":5126,
			"count":50,
			"max":[
				2.500000238418579,
				2.5,
				2.500000238418579
			],
			"min":[
				-2.500000238418579,
				-2.5,
				-0.5000002384185791
			],
			"type":"VEC3"
		},
		{
			"bufferView":5,
			"componentType":5126,
			"count":50,
			"type":"VEC3"
		},
		{
			"bufferView":6,
			"componentType":5126,
			"count":50,
			"type":"VEC2"
		},
		{
			"bufferView":7,
			"componentType":5123,
			"count":108,
			"type":"SCALAR"
		},
		{
			"bufferView":8,
			"componentType":5126,
			"count":4,
			"max":[
				2.1000003814697266,
				0.5,
				-0.5000001192092896
			],
			"min":[
				-2.1000003814697266,
				-2.5,
				-0.5000002384185791
			],
			"type":"VEC3"
		},
		{
			"bufferView":9,
			"componentType":5126,
			"count":4,
			"type":"VEC3"
		},
		{
			"bufferView":10,
			"componentType":5126,
			"count":4,
			"type":"VEC2"
		},
		{
			"bufferView":11,
			"componentType":5123,
			"count":6,
			"type":"SCALAR"
		}
	],
	"bufferViews":[
		{
			"buffer":0,
			"byteLength":48,
			"byteOffset":0,
			"target":34962
		},
		{
			"buffer":0,
			"byteLength":48,
			"byteOffset":48,
			"target":34962
		},
		{
			"buffer":0,
			"byteLength":32,
			"byteOffset":96,
			"target":34962
		},
		{
			"buffer":0,
			"byteLength":12,
			"byteOffset":128,
			"target":34963
		},
		{
			"buffer":0,
			"byteLength":600,
			"byteOffset":140,
			"target":34962
		},
		{
			"buffer":0,
			"byteLength":600,
			"byteOffset":740,
			"target":34962
		},
		{
			"buffer":0,
			"byteLength":400,
			"byteOffset":1340,
			"target":34962
		},
		{
			"buffer":0,
			"byteLength":216,
			"byteOffset":1740,
			"target":34963
		},
		{
			"buffer":0,
			"byteLength":48,
			"byteOffset":1956,
			"target":34962
		},
		{
			"buffer":0,
			"byteLength":48,
			"byteOffset":2004,
			"target":34962
		},
		{
			"buffer":0,
			"byteLength":32,
			"byteOffset":2052,
			"target":34962
		},
		{
			"buffer":0,
			"byteLength":12,
			"byteOffset":2084,
			"target":34963
		}
	],
	"samplers":[
		{
			"magFilter":9729,
			"minFilter":9987
		}
	],
	"buffers":[
		{
			"byteLength":2096,
			"uri":"door.bin"
		}
	]
}
